<svg width="39" height="35" viewBox="0 0 39 35" fill="none" xmlns="http://www.w3.org/2000/svg">
<path d="M38.422 6.8911C38.3008 6.57038 37.9937 6.34397 37.6205 6.30038L34.7845 5.9675C35.2225 5.23676 35.0995 4.30312 34.4148 3.68704C34.0099 3.32246 33.4717 3.12194 32.8992 3.12194C32.8986 3.12194 32.898 3.12194 32.8977 3.12194C32.5621 3.12221 32.2389 3.19169 31.9467 3.3222L31.5768 0.769094C31.528 0.433049 31.2764 0.156709 30.9203 0.0475997C30.5638 -0.0612454 30.1771 0.0195958 29.9108 0.259213L25.8678 3.89707C25.6458 4.09679 25.5431 4.38238 25.593 4.6611L26.2471 8.32379L26.0601 8.4926C23.2441 6.5392 19.8112 5.48034 16.1968 5.48034C12.8 5.48034 9.54825 6.41609 6.7933 8.18667C6.53962 8.34968 6.48089 8.6667 6.66205 8.89496C6.84321 9.12322 7.19554 9.17605 7.44922 9.01305C10.0116 7.36611 13.0367 6.49561 16.1968 6.49561C19.5921 6.49561 22.7282 7.51194 25.2503 9.22334L22.9599 11.2911C21.0402 10.0878 18.7086 9.3808 16.1968 9.3808C9.6563 9.3808 4.33518 14.1687 4.33518 20.054C4.33518 25.939 9.6563 30.7268 16.1968 30.7268C22.7373 30.7268 28.0584 25.939 28.0584 20.054C28.0584 17.8195 27.2906 15.744 25.9811 14.0281L28.2748 11.9572C30.1519 14.2183 31.265 17.0211 31.265 20.054C31.265 27.5299 24.5054 33.612 16.1968 33.612C7.88817 33.612 1.12864 27.5299 1.12864 20.054C1.12864 16.7107 2.49247 13.4995 4.96909 11.0116C5.17696 10.8029 5.15729 10.4817 4.92534 10.2946C4.69309 10.1076 4.33635 10.1253 4.12848 10.334C1.466 13.0084 0 16.4602 0 20.054C0 23.9468 1.68474 27.6065 4.74389 30.3591C7.80303 33.1117 11.8704 34.6276 16.1968 34.6276C20.5232 34.6276 24.5906 33.1117 27.6497 30.3591C30.7089 27.6065 32.3936 23.9468 32.3936 20.054C32.3936 16.8216 31.2306 13.7507 29.0852 11.2259L29.2285 11.0964L33.2947 11.6845C33.3464 11.6919 33.398 11.6956 33.4497 11.6956C33.7075 11.6956 33.9591 11.6037 34.1441 11.4372L35.012 10.6563C35.2325 10.4579 35.2325 10.1366 35.012 9.93823C34.7915 9.74009 34.4345 9.74009 34.214 9.93823L33.3995 10.6711L30.2267 10.2122L33.9189 6.89004L37.1768 7.27232L36.6874 7.71272C36.4672 7.91113 36.4672 8.23238 36.6874 8.43078C36.9079 8.62892 37.2652 8.62892 37.4854 8.43078L38.1871 7.79938C38.4532 7.55976 38.5433 7.21182 38.422 6.8911ZM30.4963 1.16828L30.9214 4.0997L27.229 7.42185L26.719 4.56705L30.4963 1.16828ZM26.9298 20.054C26.9298 25.3789 22.1151 29.7113 16.1968 29.7113C10.2785 29.7113 5.46382 25.3789 5.46382 20.054C5.46382 14.7287 10.2785 10.3966 16.1968 10.3966C18.3977 10.3966 20.4454 10.9958 22.1501 12.0221L19.8076 14.137C18.7357 13.6049 17.5051 13.3011 16.1968 13.3011C12.0586 13.3011 8.69208 16.3305 8.69208 20.054C8.69208 23.7771 12.0586 26.8066 16.1968 26.8066C20.335 26.8066 23.7015 23.7771 23.7015 20.054C23.7015 18.9079 23.3815 17.8284 22.8195 16.8821L25.1699 14.7602C26.2821 16.2816 26.9298 18.1008 26.9298 20.054ZM15.1477 21.0713C15.5526 21.4357 16.0911 21.6362 16.6636 21.6362H16.6651C17.2382 21.6359 17.7767 21.4346 18.1816 21.0692L18.9814 20.3472C18.8193 21.6008 17.6326 22.5769 16.1968 22.5769C14.6506 22.5769 13.3928 21.4452 13.3928 20.054C13.3928 18.7087 14.5684 17.6063 16.0438 17.5347L15.1457 18.3455C14.3124 19.0976 14.3133 20.3203 15.1477 21.0713ZM12.2642 20.054C12.2642 22.005 14.0285 23.5925 16.1968 23.5925C18.3651 23.5925 20.1294 22.0052 20.1294 20.054C20.1294 19.8223 20.1036 19.5964 20.056 19.3771L21.9798 17.6403C22.36 18.3745 22.5732 19.1922 22.5732 20.054C22.5732 23.2173 19.7128 25.791 16.1968 25.791C12.6808 25.791 9.82073 23.2173 9.82073 20.054C9.82073 16.8903 12.6808 14.3166 16.1968 14.3166C17.1916 14.3166 18.1332 14.5235 18.9729 14.8907L17.0735 16.6053C16.7917 16.5469 16.4983 16.5154 16.1968 16.5154C14.0285 16.5154 12.2642 18.1027 12.2642 20.054ZM17.3824 20.3522C17.1907 20.5253 16.9355 20.6206 16.6642 20.6206C16.6639 20.6206 16.6636 20.6206 16.6636 20.6206C16.3923 20.6206 16.1375 20.5258 15.9458 20.3533C15.5509 19.9977 15.5503 19.4188 15.9449 19.0627L32.1804 4.40589C32.3722 4.23285 32.627 4.13748 32.8983 4.13721H32.8992C33.1702 4.13721 33.4251 4.23232 33.6168 4.40484C34.012 4.76043 34.0126 5.33927 33.6177 5.69539L17.3824 20.3522Z" fill="#569B7E"/>
</svg>
