<?xml version="1.0" encoding="UTF-8" standalone="no"?>
<!-- Generator: Adobe Illustrator 18.1.1, SVG Export Plug-In . SVG Version: 6.00 Build 0)  -->

<svg
   xmlns:dc="http://purl.org/dc/elements/1.1/"
   xmlns:cc="http://creativecommons.org/ns#"
   xmlns:rdf="http://www.w3.org/1999/02/22-rdf-syntax-ns#"
   xmlns:svg="http://www.w3.org/2000/svg"
   xmlns="http://www.w3.org/2000/svg"
   xmlns:sodipodi="http://sodipodi.sourceforge.net/DTD/sodipodi-0.dtd"
   xmlns:inkscape="http://www.inkscape.org/namespaces/inkscape"
   version="1.1"
   id="artwork"
   x="0px"
   y="0px"
   viewBox="0 0 135.5 104.5"
   enable-background="new 0 0 135.5 104.5"
   xml:space="preserve"
   sodipodi:docname="ehelse_logo_hvit.svg"
   inkscape:label="img"
   inkscape:version="0.92.4 (5da689c313, 2019-01-14)"><metadata
   id="metadata3877"><rdf:RDF><cc:Work
       rdf:about=""><dc:format>image/svg+xml</dc:format><dc:type
         rdf:resource="http://purl.org/dc/dcmitype/StillImage" /><dc:title></dc:title></cc:Work></rdf:RDF></metadata><defs
   id="defs3875" /><sodipodi:namedview
   pagecolor="#ffffff"
   bordercolor="#666666"
   borderopacity="1"
   objecttolerance="10"
   gridtolerance="10"
   guidetolerance="10"
   inkscape:pageopacity="0"
   inkscape:pageshadow="2"
   inkscape:window-width="3200"
   inkscape:window-height="1721"
   id="namedview3873"
   showgrid="false"
   inkscape:snap-page="true"
   inkscape:zoom="7.7320574"
   inkscape:cx="70.151981"
   inkscape:cy="52.944329"
   inkscape:window-x="2391"
   inkscape:window-y="-9"
   inkscape:window-maximized="1"
   inkscape:current-layer="artwork" />
<g
   inkscape:groupmode="layer"
   id="layer1"
   inkscape:label="background" /><g
   id="g4766"><g
     id="g4725"><g
       id="g3870"
       transform="translate(2.0621287,2.1986386)">
	<g
   id="g3848">
		<g
   id="g3830">
			<g
   id="g3820">
				
				
				
				
				
				
				
				
				
				
				
				
			</g>
			<g
   id="g3828">
				
				
				
			</g>
		</g>
		<g
   id="g3846">
			
			
			
			
			
			
			
		</g>
	</g>
	<g
   id="g3868">
		<rect
   x="108.9"
   y="30.299999"
   width="7.5"
   height="7.5"
   id="rect3850"
   style="fill:#ffffff" />
		<rect
   x="97.400002"
   y="41.700001"
   width="7.5"
   height="7.5"
   id="rect3852"
   style="fill:#ffffff" />
		<rect
   x="97.400002"
   y="30.299999"
   width="7.5"
   height="7.5"
   id="rect3854"
   style="fill:#ffffff" />
		<rect
   x="78.099998"
   y="30.299999"
   width="7.5"
   height="7.5"
   id="rect3856"
   style="fill:#ffffff" />
		<rect
   x="97.5"
   y="18.9"
   width="7.5"
   height="7.5"
   id="rect3858"
   style="fill:#ffffff" />
		<path
   d="m 112.4,41.4 c -2.2,0 -3.9,1.7 -3.9,3.9 0,2.2 1.8,3.9 3.9,3.9 2.1,0 3.9,-1.7 3.9,-3.9 0,-2.2 -1.7,-3.9 -3.9,-3.9 z"
   id="path3860"
   inkscape:connector-curvature="0"
   style="fill:#ffffff" />
		<path
   d="m 54.5,41.4 c -2.2,0 -3.9,1.7 -3.9,3.9 0,2.2 1.8,3.9 3.9,3.9 2.1,0 3.9,-1.7 3.9,-3.9 0,-2.2 -1.8,-3.9 -3.9,-3.9 z"
   id="path3862"
   inkscape:connector-curvature="0"
   style="fill:#ffffff" />
		<path
   d="m 112.5,18.9 c -2.2,0 -3.9,1.7 -3.9,3.9 0,2.2 1.8,3.9 3.9,3.9 2.1,0 3.9,-1.7 3.9,-3.9 0,-2.2 -1.8,-3.9 -3.9,-3.9 z"
   id="path3864"
   inkscape:connector-curvature="0"
   style="fill:#ffffff" />
		<path
   d="m 22.9,18.9 c -2.2,0 -3.9,1.7 -3.9,3.9 0,2.2 1.8,3.9 3.9,3.9 2.1,0 3.9,-1.7 3.9,-3.9 0,-2.2 -1.7,-3.9 -3.9,-3.9 z"
   id="path3866"
   inkscape:connector-curvature="0"
   style="fill:#ffffff" />
	</g>
</g></g></g>
</svg>